<mxfile host="app.diagrams.net" modified="2023-06-18T12:04:22.981Z" agent="Mozilla/5.0 (Macintosh; Intel Mac OS X 10_15_7) AppleWebKit/537.36 (KHTML, like Gecko) Chrome/114.0.0.0 Safari/537.36" version="21.2.9" etag="dvpDgaUdoMwjbH11o39V" type="github">
  <diagram name="Page-1" id="OoNo341gzDxxcAl_FbLh">
    <mxGraphModel>
      <root>
        <mxCell id="0" />
        <mxCell id="1" parent="0" />
      </root>
    </mxGraphModel>
  </diagram>
</mxfile>
